<svg width="1204" height="1204" viewBox="0 0 1204 1204" fill="none" xmlns="http://www.w3.org/2000/svg">
<path d="M1145.63 347.76C822.12 113.46 381.28 113.7 58.0195 348.5C153.56 143.83 361.22 2 602 2C842.78 2 1049.93 143.49 1145.63 347.76Z" fill="#EAEAEA" stroke="#333333" stroke-width="3" stroke-miterlimit="10"/>
<path d="M1200.64 561.35C855.78 269.64 347.95 269.84 3.32031 561.95C8.32031 486.08 27.4203 414.07 58.0203 348.5C381.28 113.7 822.12 113.46 1145.63 347.76C1176.36 413.35 1195.56 485.42 1200.64 561.35Z" fill="#EAEAEA" stroke="#333333" stroke-width="3" stroke-miterlimit="10"/>
<path d="M1202 602C1202 642.94 1197.9 682.91 1190.08 721.55C849.06 441.61 354.85 441.77 14.01 722.03C6.13 683.25 2 643.11 2 602C2 588.54 2.44 575.19 3.32 561.95C347.95 269.84 855.78 269.64 1200.64 561.35C1201.54 574.78 1202 588.34 1202 602Z" fill="url(#paint0_radial_10_116)" stroke="#333333" stroke-width="3" stroke-miterlimit="10"/>
<path d="M1190.08 721.55C1180.5 768.97 1165.32 814.36 1145.27 857C822.09 623.17 381.96 623.29 58.8998 857.36C38.8298 814.75 23.6298 769.41 14.0098 722.03C354.85 441.77 849.06 441.61 1190.08 721.55Z" fill="#DCE291" stroke="#333333" stroke-width="3" stroke-miterlimit="10"/>
<path d="M1145.27 857C1124.89 900.36 1099.46 940.87 1069.76 977.8C781.75 809.6 422.39 809.69 134.46 978.07C104.74 941.17 79.3004 900.69 58.9004 857.36C381.96 623.29 822.09 623.17 1145.27 857Z" fill="#E5DB76" stroke="#333333" stroke-width="3" stroke-miterlimit="10"/>
<path d="M1069.76 977.8C979.9 1089.5 850.85 1168.35 703.49 1193.45L703.83 1128.71V1094.58L670.04 1077.11V1148.91H655.79V1179.95H650.45V983L617.25 1016.19V1060.79L604.8 1073.25L597.14 1080.9L593.51 1084.48V1179.95H588.08V1132.64L571.1 1120.99V1179.95H565.66V1083.32L539.28 1106.21V1179.95H530.74V1150.89H525.69V1132.22H510.56V1076.72L489.99 1091.88V1143.09L489.93 1191.55C347.09 1164.56 222.15 1086.95 134.46 978.07C422.39 809.69 781.75 809.6 1069.76 977.8Z" fill="#EFD256" stroke="#333333" stroke-width="3" stroke-miterlimit="10"/>
<path d="M703.83 1094.58V1128.71L703.49 1193.45C670.5 1199.07 636.59 1202 602 1202C563.7 1202 526.23 1198.41 489.93 1191.55L489.99 1143.09V1091.88L510.56 1076.72V1132.22H525.69V1150.89H530.74V1179.95H539.28V1106.21L565.66 1083.32V1179.95H571.1V1120.99L588.08 1132.64V1179.95H593.51V1084.48L597.14 1080.9L604.8 1073.25L617.25 1060.79V1016.19L650.45 983V1179.95H655.79V1148.91H670.04V1077.11L703.83 1094.58Z" fill="url(#paint1_linear_10_116)" stroke="#333333" stroke-width="3" stroke-miterlimit="10"/>
<path d="M352.53 937.4C354.86 936.66 356.03 936.29 358.36 935.57C358.01 951.19 357.98 966.83 358.17 982.45C355.86 983.22 354.7 983.6 352.39 984.39C343.11 971.8 333.56 959.4 323.84 947.14C326.36 946.23 327.62 945.79 330.14 944.9C336.84 953.55 343.47 962.24 350.03 970.99C351.11 972.53 351.65 973.3 352.73 974.84C352.6 972.99 352.54 972.07 352.41 970.22C352.36 959.27 352.41 948.34 352.53 937.39V937.4Z" fill="#333333"/>
<path d="M385.701 973.9C382.621 963.28 381.081 957.97 378.011 947.36C374.371 948.41 372.561 948.95 368.931 950.05C368.411 948.34 368.161 947.49 367.641 945.79C373.481 944.02 376.401 943.17 382.261 941.51C385.261 952.15 386.761 957.47 389.771 968.11C393.321 967.11 395.101 966.62 398.651 965.66C399.111 967.38 399.341 968.24 399.811 969.96C394.161 971.48 391.341 972.27 385.711 973.9H385.701ZM372.641 932.21C372.301 931.06 372.481 930.07 373.171 929.25C373.861 928.43 374.591 927.92 375.351 927.7C376.131 927.48 377.031 927.53 378.051 927.85C379.071 928.18 379.741 928.92 380.071 930.08C380.391 931.22 380.201 932.19 379.511 933C378.821 933.81 378.091 934.32 377.321 934.55C376.571 934.76 375.691 934.71 374.671 934.39C373.651 934.07 372.981 933.34 372.651 932.2L372.641 932.21Z" fill="#333333"/>
<path d="M438.189 959.33C435.899 960.9 434.219 961.91 433.139 962.36C432.059 962.81 430.989 963.15 429.939 963.39C427.709 963.9 425.569 963.95 423.519 963.55C421.469 963.15 419.779 962.25 418.429 960.84C417.089 959.43 415.989 957.02 415.159 953.59C413.939 948.57 413.319 946.05 412.099 941.03C408.809 941.83 407.169 942.24 403.879 943.08C403.439 941.35 403.219 940.49 402.779 938.77C406.079 937.93 407.739 937.52 411.039 936.71C409.819 931.69 409.199 929.17 407.979 924.15C410.219 923.6 411.339 923.33 413.589 922.8C414.779 927.83 415.369 930.35 416.559 935.38C422.459 933.99 425.419 933.32 431.339 932.04C431.719 933.78 431.899 934.65 432.279 936.39C426.389 937.66 423.449 938.33 417.579 939.72C418.759 944.72 419.349 947.22 420.529 952.22C421.119 954.74 421.849 956.44 422.709 957.33C423.569 958.22 424.569 958.79 425.709 959.04C426.849 959.29 428.119 959.25 429.519 958.93C432.109 958.34 434.659 956.95 437.189 954.74C437.589 956.58 437.779 957.5 438.179 959.35L438.189 959.33Z" fill="#333333"/>
<path d="M466.85 947.75C465.66 950.67 464.04 953 461.98 954.75C459.92 956.5 457.94 957.56 456.02 957.93C453.33 958.44 450.71 957.78 448.1 955.94C445.5 954.1 443.71 950.88 442.76 946.27C442.01 942.63 442.07 939.23 442.95 936.07C443.83 932.91 445.35 930.25 447.5 928.11C449.65 925.96 452.57 924.54 456.24 923.87C457.3 923.68 458.92 923.49 461.1 923.32C461.43 923.3 461.91 923.26 462.56 923.21C464.8 922.82 465.93 922.63 468.17 922.25C469.67 931.19 470.42 935.66 471.91 944.6C472.55 948.42 473.49 951.45 474.71 953.69C472.47 954.06 471.35 954.25 469.11 954.64C468.38 952.99 467.62 950.69 466.84 947.75H466.85ZM465.77 941.45C464.82 936.02 464.35 933.31 463.4 927.88C461.34 927.73 459.46 927.82 457.76 928.13C454.33 928.75 451.7 930.55 449.91 933.49C448.12 936.43 447.67 940.06 448.52 944.37C449.14 947.49 450.21 949.73 451.73 951.08C453.25 952.43 454.78 952.96 456.33 952.67C458.01 952.35 459.71 951.17 461.45 949.14C463.19 947.11 464.62 944.55 465.76 941.45H465.77Z" fill="#333333"/>
<path d="M491.071 951.16C489.081 937.33 487.091 923.5 485.101 909.67C481.021 910.26 478.981 910.56 474.911 911.2C474.631 909.44 474.501 908.56 474.221 906.8C480.601 905.8 483.791 905.33 490.181 904.46C492.071 918.3 493.971 932.15 495.861 945.99C499.931 945.43 501.971 945.17 506.041 944.67C506.261 946.44 506.371 947.32 506.581 949.09C500.371 949.86 497.261 950.27 491.061 951.16H491.071Z" fill="#333333"/>
<path d="M527.14 946.83C526.08 935.83 525.55 930.33 524.49 919.32C520.75 919.68 518.89 919.87 515.15 920.28C514.96 918.51 514.86 917.62 514.67 915.85C520.68 915.2 523.68 914.9 529.7 914.37C530.68 925.38 531.18 930.89 532.16 941.9C535.8 941.57 537.62 941.42 541.27 941.14C541.41 942.92 541.48 943.8 541.61 945.58C535.82 946.03 532.92 946.28 527.14 946.84V946.83ZM522.03 903.44C521.91 902.24 522.27 901.31 523.09 900.64C523.91 899.97 524.72 899.59 525.5 899.52C526.3 899.45 527.17 899.66 528.1 900.17C529.03 900.68 529.55 901.53 529.66 902.73C529.76 903.91 529.4 904.83 528.58 905.5C527.76 906.17 526.95 906.54 526.16 906.61C525.39 906.68 524.54 906.47 523.61 905.96C522.68 905.45 522.15 904.62 522.04 903.44H522.03Z" fill="#333333"/>
<path d="M555.28 944.64C554.36 929.21 553.43 913.78 552.51 898.36C554.81 898.22 555.96 898.16 558.26 898.04C558.77 907.74 559.28 917.43 559.79 927.13C565.88 920.86 568.99 917.75 575.32 911.6C578.31 911.5 579.81 911.46 582.8 911.39C576.47 917.42 573.36 920.47 567.27 926.62C574.1 933.28 577.45 936.65 584 943.46C581.01 943.53 579.52 943.57 576.53 943.66C569.97 936.97 566.62 933.66 559.78 927.12C560.14 934.01 560.33 937.45 560.69 944.33C558.52 944.44 557.43 944.51 555.27 944.63L555.28 944.64Z" fill="#333333"/>
<path d="M626.061 943.65C626.531 928.8 627.001 913.94 627.471 899.09C631.211 899.21 633.081 899.28 636.821 899.44C642.441 899.68 646.171 900.29 648.031 901.19C649.881 902.09 651.231 903.35 652.081 904.96C652.931 906.57 653.281 908.37 653.151 910.35C653.051 911.92 652.681 913.38 652.051 914.76C651.421 916.13 650.531 917.36 649.401 918.45C648.271 919.54 646.661 920.55 644.581 921.47C648.211 923.09 650.601 924.98 651.771 927.13C652.941 929.28 653.451 931.38 653.311 933.45C653.181 935.42 652.511 937.29 651.301 939.08C650.091 940.86 648.491 942.19 646.481 943.07C644.471 943.95 641.341 944.27 637.061 944.08C632.661 943.88 630.461 943.79 626.061 943.65ZM632.921 919.37C635.471 919.47 636.751 919.53 639.301 919.65C641.411 918.92 642.961 918.14 643.971 917.28C644.971 916.42 645.751 915.44 646.281 914.35C646.811 913.26 647.131 912.04 647.201 910.7C647.321 908.59 646.751 906.98 645.491 905.88C644.231 904.77 641.681 904.12 637.861 903.95C636.131 903.87 635.261 903.84 633.531 903.77C633.281 910.02 633.161 913.14 632.921 919.39V919.37ZM632.131 939.41C634.371 939.5 635.491 939.55 637.731 939.65C640.861 939.8 643.211 939.2 644.791 937.84C646.371 936.48 647.231 934.79 647.341 932.76C647.431 931.27 647.091 929.87 646.331 928.57C645.571 927.27 644.331 926.2 642.621 925.38C640.911 924.55 638.171 924.05 634.421 923.89C633.751 923.86 633.411 923.85 632.741 923.82C632.491 930.05 632.371 933.17 632.131 939.41Z" fill="#333333"/>
<path d="M691.74 916.23C690.54 926.86 689.35 937.49 688.15 948.12C685.99 947.88 684.91 947.76 682.74 947.53C683.04 944.73 683.18 943.33 683.48 940.53C681.44 942.97 679.3 944.75 677.03 945.85C674.76 946.96 672.57 947.41 670.44 947.22C668.54 947.05 666.84 946.4 665.34 945.27C663.84 944.14 662.84 942.73 662.34 941.05C661.84 939.37 661.77 936.16 662.14 931.43C662.69 924.28 662.97 920.71 663.52 913.56C665.78 913.73 666.91 913.83 669.16 914.01C668.54 921.42 668.22 925.12 667.6 932.53C667.34 935.6 667.32 937.64 667.54 938.65C667.76 939.66 668.25 940.51 669 941.21C669.76 941.91 670.6 942.3 671.54 942.39C673.45 942.56 675.58 941.87 677.96 940.33C680.33 938.78 682.39 936.75 684.13 934.22C684.91 926.78 685.31 923.06 686.09 915.62C688.34 915.86 689.47 915.98 691.72 916.23H691.74Z" fill="#333333"/>
<path d="M724.421 951.76C721.721 952.39 719.801 952.73 718.631 952.76C717.461 952.78 716.351 952.72 715.291 952.56C713.031 952.23 711.031 951.5 709.281 950.39C707.531 949.27 706.281 947.82 705.541 946.02C704.801 944.22 704.661 941.57 705.131 938.08C705.811 932.95 706.151 930.39 706.831 925.26C703.491 924.82 701.821 924.6 698.471 924.2C698.691 922.43 698.791 921.55 699.011 919.78C702.371 920.19 704.051 920.4 707.411 920.85C708.091 915.72 708.431 913.16 709.111 908.03C711.391 908.33 712.521 908.49 714.801 908.81C714.081 913.93 713.721 916.49 713.011 921.61C718.991 922.45 721.981 922.89 727.951 923.84C727.671 925.6 727.531 926.48 727.251 928.24C721.311 927.3 718.341 926.85 712.401 926.02L710.621 938.74C710.261 941.3 710.321 943.15 710.801 944.29C711.271 945.43 712.001 946.32 712.961 946.96C713.921 947.6 715.121 948.03 716.531 948.24C719.151 948.63 722.021 948.25 725.171 947.11C724.871 948.97 724.721 949.9 724.421 951.76Z" fill="#333333"/>
<path d="M759.939 957.44C755.249 958.52 751.009 958.71 747.199 957.98C744.299 957.43 741.849 956.24 739.809 954.41C737.769 952.58 736.289 950.24 735.359 947.37C734.429 944.5 734.209 941.56 734.719 938.56C735.209 935.68 736.359 933.02 738.169 930.59C739.979 928.17 742.239 926.43 744.949 925.39C747.659 924.35 750.519 924.12 753.519 924.7C757.499 925.46 760.439 927.44 762.289 930.59C764.139 933.74 764.469 938.09 763.309 943.63L763.079 944.75C754.059 942.87 749.539 941.99 740.469 940.37C740.079 942.56 740.199 944.65 740.809 946.63C741.429 948.61 742.409 950.2 743.769 951.39C745.129 952.58 746.779 953.36 748.729 953.73C752.199 954.4 756.249 954.03 760.939 952.65C760.539 954.56 760.339 955.52 759.939 957.43V957.44ZM741.489 936.5C748.079 937.68 751.369 938.3 757.929 939.62C757.989 939.32 758.019 939.16 758.079 938.86C758.599 936.3 758.339 934.12 757.319 932.34C756.289 930.56 754.659 929.45 752.429 929.02C750.179 928.59 748.089 929 746.159 930.25C744.239 931.5 742.679 933.58 741.489 936.49V936.5Z" fill="#333333"/>
<path d="M770.84 961.98C773.18 951.54 775.51 941.1 777.85 930.67C780.07 931.17 781.18 931.42 783.4 931.93C782.77 934.66 782.45 936.03 781.82 938.76C784.13 936.58 786.56 935.12 789.09 934.38C791.63 933.64 794.27 933.61 797.01 934.29C799.01 934.79 800.94 935.58 802.79 936.67C801.63 941.15 801.06 943.4 799.9 947.88C797.81 947.34 796.76 947.07 794.66 946.55C795.37 943.71 795.73 942.29 796.44 939.44C795.55 939.06 794.84 938.8 794.31 938.67C792.26 938.16 790.06 938.44 787.72 939.49C785.39 940.55 782.93 942.39 780.36 945.02C778.68 952.29 777.84 955.92 776.16 963.18C774.03 962.69 772.96 962.44 770.83 961.97L770.84 961.98Z" fill="#333333"/>
<path d="M812.11 972.42C815.11 961.78 816.62 956.46 819.62 945.82C815.98 944.79 814.15 944.29 810.5 943.3C810.96 941.58 811.2 940.72 811.66 939C817.54 940.58 820.47 941.4 826.32 943.1C823.24 953.72 821.7 959.03 818.62 969.64C822.16 970.67 823.93 971.19 827.47 972.26C826.95 973.96 826.7 974.82 826.18 976.52C820.56 974.82 817.75 974 812.11 972.4V972.42ZM823.08 930.13C823.41 928.97 824.08 928.23 825.1 927.9C826.12 927.57 827.01 927.52 827.77 927.74C828.55 927.96 829.29 928.48 829.98 929.3C830.67 930.12 830.85 931.1 830.51 932.26C830.18 933.4 829.5 934.12 828.49 934.45C827.48 934.78 826.58 934.82 825.81 934.6C825.06 934.39 824.34 933.87 823.65 933.06C822.96 932.25 822.77 931.28 823.09 930.14L823.08 930.13Z" fill="#333333"/>
<path d="M837.99 980.21C841.25 970.02 844.52 959.84 847.78 949.65C849.96 950.35 851.05 950.7 853.23 951.42C852.36 954.08 851.92 955.42 851.04 958.08C853.36 956.24 855.84 955.02 858.48 954.44C861.12 953.85 863.55 953.94 865.75 954.7C867.67 955.37 869.26 956.45 870.49 957.96C871.72 959.46 872.38 961.1 872.45 962.85C872.52 964.6 871.75 967.73 870.14 972.22C867.71 978.97 866.5 982.34 864.07 989.09C862 988.34 860.96 987.97 858.88 987.24C861.35 980.23 862.58 976.72 865.05 969.71C866.07 966.8 866.6 964.83 866.63 963.79C866.66 962.75 866.38 961.8 865.79 960.92C865.2 960.04 864.43 959.44 863.48 959.11C861.59 958.46 859.26 958.6 856.52 959.56C853.78 960.52 851.29 962.05 849.06 964.13C846.73 971.24 845.56 974.79 843.23 981.9C841.14 981.21 840.09 980.88 838 980.2L837.99 980.21Z" fill="#333333"/>
<path d="M387.651 812.38C385.381 814.06 383.711 815.16 382.631 815.65C381.551 816.14 380.471 816.53 379.421 816.81C377.171 817.41 375.001 817.53 372.901 817.2C370.801 816.86 369.051 816 367.631 814.61C366.211 813.22 365.021 810.8 364.051 807.34C362.631 802.26 361.921 799.72 360.501 794.64C357.191 795.57 355.531 796.04 352.231 797C351.721 795.26 351.471 794.38 350.961 792.64C354.281 791.68 355.941 791.2 359.271 790.27C357.851 785.19 357.141 782.65 355.721 777.57C357.971 776.94 359.101 776.63 361.351 776.01C362.741 781.1 363.431 783.64 364.821 788.73C370.761 787.11 373.731 786.33 379.691 784.81C380.141 786.57 380.361 787.45 380.811 789.21C374.881 790.72 371.921 791.5 366.021 793.11C367.401 798.16 368.091 800.69 369.471 805.74C370.161 808.28 370.971 809.99 371.871 810.87C372.771 811.75 373.811 812.29 374.981 812.5C376.151 812.71 377.441 812.63 378.851 812.26C381.461 811.57 384.001 810.06 386.491 807.71C386.961 809.57 387.201 810.5 387.671 812.37L387.651 812.38Z" fill="#333333"/>
<path d="M416.591 773.49C418.811 784.17 421.041 794.85 423.261 805.53C421.091 805.98 420.011 806.21 417.841 806.68L416.331 799.66C415.131 802.67 413.621 805.07 411.771 806.86C409.921 808.65 407.951 809.79 405.821 810.28C403.921 810.72 402.071 810.62 400.261 810C398.451 809.38 397.031 808.33 396.021 806.86C395.011 805.39 393.931 802.3 392.781 797.59C391.061 790.48 390.201 786.93 388.471 779.82C390.711 779.28 391.831 779.01 394.081 778.48C395.821 785.86 396.691 789.55 398.431 796.93C399.151 799.99 399.781 801.97 400.311 802.88C400.841 803.79 401.591 804.46 402.541 804.9C403.491 805.34 404.441 805.45 405.371 805.24C407.281 804.8 409.131 803.46 410.931 801.21C412.741 798.96 414.091 796.33 414.971 793.33C413.371 785.87 412.561 782.14 410.961 774.68C413.211 774.2 414.341 773.96 416.591 773.49Z" fill="#333333"/>
<path d="M431.671 803.82L430.701 798.91C435.921 789.95 441.331 781.08 446.911 772.34C438.811 773.74 434.761 774.49 426.691 776.08C426.341 774.3 426.161 773.41 425.811 771.62C435.051 769.78 444.341 768.11 453.641 766.6C453.931 768.39 454.081 769.29 454.371 771.08C448.671 779.78 443.131 788.61 437.791 797.53C446.181 795.95 450.391 795.21 458.811 793.83C459.131 795.81 459.291 796.8 459.621 798.77C450.281 800.28 440.961 801.96 431.681 803.81L431.671 803.82Z" fill="#333333"/>
<path d="M491.481 761.23C492.781 772.06 494.081 782.89 495.371 793.72C493.181 793.98 492.081 794.12 489.891 794.39C489.531 791.54 489.351 790.12 488.991 787.27C487.551 790.17 485.841 792.43 483.851 794.05C481.871 795.67 479.801 796.64 477.651 796.94C475.731 797.21 473.901 796.96 472.151 796.18C470.401 795.4 469.091 794.24 468.211 792.68C467.331 791.12 466.521 787.95 465.791 783.17C464.681 775.94 464.131 772.33 463.031 765.1C465.301 764.75 466.441 764.58 468.711 764.25C469.811 771.75 470.361 775.5 471.451 783C471.911 786.11 472.361 788.14 472.811 789.09C473.261 790.04 473.941 790.78 474.851 791.3C475.761 791.82 476.691 792.01 477.631 791.88C479.561 791.61 481.511 790.43 483.501 788.34C485.491 786.25 487.051 783.75 488.181 780.84C487.221 773.27 486.741 769.49 485.791 761.92C488.071 761.63 489.211 761.49 491.481 761.22V761.23Z" fill="#333333"/>
<path d="M504.52 792.68C503.34 781.84 502.16 770.99 500.98 760.15C503.26 759.9 504.4 759.78 506.68 759.55C506.97 762.39 507.12 763.82 507.41 766.66C508.78 763.99 510.55 761.83 512.72 760.19C514.89 758.55 517.14 757.63 519.46 757.43C521.49 757.25 523.38 757.61 525.12 758.5C526.86 759.39 528.12 760.64 528.91 762.24C529.7 763.84 530.28 767.07 530.65 771.92C531.2 779.21 531.48 782.86 532.04 790.15C529.84 790.32 528.74 790.4 526.54 790.59C525.92 783.03 525.6 779.26 524.98 771.7C524.72 768.57 524.39 766.51 523.99 765.53C523.59 764.55 522.94 763.78 522.05 763.21C521.16 762.64 520.2 762.4 519.2 762.49C517.2 762.67 515.14 763.77 513.03 765.79C510.92 767.82 509.27 770.27 508.08 773.14C508.86 780.73 509.25 784.52 510.02 792.11C507.82 792.33 506.73 792.45 504.53 792.69L504.52 792.68Z" fill="#333333"/>
<path d="M554.5 790.11C553.18 790.18 552.02 789.77 551.02 788.88C550.02 787.99 549.49 786.9 549.41 785.59C549.34 784.26 549.75 783.11 550.67 782.13C551.59 781.15 552.7 780.63 554.02 780.56C555.34 780.49 556.5 780.9 557.51 781.79C558.52 782.67 559.05 783.78 559.11 785.11C559.17 786.42 558.74 787.56 557.84 788.54C556.94 789.52 555.82 790.04 554.5 790.11Z" fill="#333333"/>
<path d="M604.801 785.56C600.361 787.57 596.201 788.6 592.271 788.62C589.291 788.63 586.621 787.93 584.241 786.5C581.861 785.07 579.941 783.01 578.451 780.32C576.971 777.63 576.181 774.73 576.111 771.63C576.041 768.65 576.661 765.76 577.981 762.98C579.311 760.2 581.211 758.02 583.681 756.45C586.161 754.88 588.951 754.09 592.031 754.07C596.121 754.05 599.401 755.45 601.851 758.23C604.301 761.01 605.471 765.3 605.411 771.07C605.411 771.54 605.411 771.77 605.401 772.24C596.101 772.14 591.461 772.16 582.161 772.31C582.201 774.58 582.721 776.65 583.711 778.51C584.711 780.38 586.001 781.77 587.581 782.69C589.161 783.61 590.951 784.07 592.951 784.06C596.521 784.05 600.471 782.88 604.831 780.57C604.811 782.56 604.801 783.56 604.781 785.55L604.801 785.56ZM582.441 768.24C589.201 768.13 592.571 768.11 599.331 768.13C599.331 767.81 599.331 767.66 599.331 767.34C599.331 764.67 598.671 762.55 597.301 760.97C595.941 759.39 594.101 758.6 591.811 758.62C589.501 758.63 587.511 759.46 585.851 761.08C584.191 762.71 583.051 765.1 582.431 768.24H582.441Z" fill="#333333"/>
<path d="M641.411 787.56C638.761 788.5 636.861 789.05 635.691 789.2C634.521 789.35 633.391 789.4 632.301 789.36C629.991 789.26 627.901 788.74 626.011 787.8C624.121 786.85 622.711 785.51 621.781 783.76C620.851 782.01 620.431 779.34 620.531 775.75C620.681 770.48 620.751 767.84 620.901 762.57C617.491 762.47 615.791 762.44 612.381 762.37C612.411 760.55 612.431 759.65 612.461 757.83C615.881 757.89 617.601 757.93 621.021 758.03C621.171 752.76 621.241 750.12 621.391 744.85C623.711 744.91 624.871 744.95 627.181 745.03C627.001 750.3 626.911 752.94 626.731 758.21C632.831 758.42 635.881 758.55 641.971 758.87C641.881 760.68 641.831 761.59 641.731 763.41C635.671 763.1 632.631 762.97 626.571 762.76L626.121 775.85C626.031 778.48 626.291 780.36 626.881 781.46C627.471 782.56 628.301 783.39 629.341 783.94C630.381 784.49 631.631 784.79 633.081 784.85C635.761 784.96 638.611 784.27 641.661 782.77C641.561 784.69 641.511 785.65 641.411 787.57V787.56Z" fill="#333333"/>
<path d="M650.08 789.39C651.07 773.66 652.07 757.93 653.06 742.2C655.38 742.35 656.55 742.42 658.87 742.59C658.27 751.25 657.96 755.58 657.36 764.25C659.16 761.85 661.27 760.02 663.69 758.78C666.11 757.54 668.49 757.01 670.8 757.21C672.75 757.37 674.48 758 676 759.09C677.52 760.18 678.52 761.44 679.04 762.83C679.44 763.9 679.69 765.04 679.76 766.21C679.83 767.38 679.69 769.78 679.35 773.4C678.65 780.68 678.3 784.32 677.6 791.6C675.4 791.39 674.3 791.29 672.1 791.09C672.77 783.54 673.11 779.76 673.79 772.21C674.07 769.08 674.1 767 673.87 765.97C673.64 764.94 673.14 764.07 672.35 763.35C671.56 762.63 670.67 762.23 669.67 762.15C667.67 761.98 665.45 762.72 663.03 764.35C660.61 765.99 658.56 768.12 656.9 770.75C656.37 778.36 656.1 782.17 655.57 789.78C653.37 789.63 652.27 789.55 650.07 789.41L650.08 789.39Z" fill="#333333"/>
<path d="M724.321 791.73C722.251 791.42 720.391 790.64 718.741 789.4C717.091 788.16 715.841 786.56 715.001 784.62C714.161 782.68 713.881 780.65 714.171 778.54C714.451 776.49 715.241 774.65 716.561 773.02C717.871 771.39 719.541 770.19 721.571 769.43C723.591 768.67 725.681 768.45 727.801 768.77C729.901 769.09 731.801 769.91 733.521 771.23C735.231 772.55 736.471 774.19 737.251 776.14C738.021 778.09 738.241 780.08 737.901 782.12C737.551 784.22 736.691 786.07 735.311 787.68C733.931 789.29 732.271 790.44 730.321 791.14C728.371 791.84 726.381 792.04 724.341 791.73H724.321Z" fill="#333333"/>
<path d="M769.412 792.95C769.742 791.34 769.902 790.54 770.232 788.93C772.562 789.41 773.732 789.65 776.062 790.15C778.352 785.71 779.502 783.5 781.832 779.07C778.162 778.28 776.322 777.89 772.652 777.14C772.982 775.54 773.142 774.75 773.472 773.15C777.612 774 779.682 774.43 783.812 775.33C786.332 770.56 787.602 768.19 790.162 763.43C791.952 763.83 792.852 764.03 794.632 764.43C792.052 769.17 790.782 771.54 788.242 776.3C791.672 777.06 793.382 777.45 796.812 778.25C799.452 773.53 800.772 771.18 803.452 766.48C805.242 766.9 806.132 767.12 807.912 767.55C805.212 772.24 803.882 774.59 801.222 779.29C803.252 779.78 804.272 780.02 806.302 780.52C805.912 782.1 805.722 782.89 805.332 784.48C802.862 783.87 801.622 783.58 799.142 782.99C796.692 787.36 795.472 789.55 793.062 793.93C796.832 794.81 798.712 795.26 802.462 796.18C802.072 797.77 801.872 798.57 801.482 800.16C797.292 799.14 795.202 798.64 791.002 797.66C788.552 802.13 787.342 804.37 784.932 808.86C783.212 808.47 782.352 808.28 780.622 807.89C783.012 803.39 784.222 801.15 786.652 796.66C783.382 795.92 781.742 795.56 778.472 794.85C776.132 799.37 774.972 801.63 772.672 806.16C770.942 805.79 770.082 805.61 768.352 805.26C770.632 800.72 771.792 798.45 774.112 793.92C772.232 793.52 771.282 793.33 769.402 792.94L769.412 792.95ZM780.442 791.09C783.752 791.81 785.402 792.18 788.702 792.93C791.102 788.54 792.302 786.34 794.742 781.96C791.352 781.17 789.652 780.79 786.252 780.04C783.912 784.46 782.752 786.67 780.442 791.09Z" fill="#333333"/>
<path d="M818.171 818.07C813.561 816.82 810.291 814.28 808.311 810.4C806.331 806.52 805.921 802.16 807.141 797.33C808.351 792.5 810.781 788.85 814.451 786.43C818.131 784 822.391 783.43 827.191 784.73C831.961 786.02 835.351 788.67 837.311 792.62C839.271 796.57 839.531 800.94 838.141 805.72C836.751 810.5 834.201 814.05 830.531 816.41C826.861 818.76 822.761 819.31 818.171 818.07ZM819.361 813.69C822.231 814.47 824.821 814.01 827.131 812.3C829.441 810.59 831.151 807.84 832.231 804.02C833.301 800.22 833.291 796.99 832.161 794.32C831.031 791.65 828.981 789.91 826.021 789.11C823.041 788.3 820.381 788.77 818.061 790.51C815.741 792.25 814.101 795.03 813.111 798.85C812.121 802.69 812.201 805.93 813.341 808.56C814.471 811.2 816.481 812.9 819.371 813.68L819.361 813.69Z" fill="#333333"/>
<path d="M313.81 655.69C313.03 658.83 311.72 661.44 309.88 663.52C308.04 665.61 306.18 666.98 304.28 667.64C301.62 668.56 298.84 668.29 295.92 666.82C293 665.35 290.72 662.36 289.09 657.84C287.81 654.28 287.37 650.83 287.81 647.51C288.25 644.19 289.4 641.28 291.27 638.8C293.14 636.32 295.89 634.45 299.51 633.22C300.56 632.87 302.18 632.43 304.36 631.93C304.69 631.86 305.18 631.75 305.83 631.6C304 626.07 303.09 623.31 301.26 617.78C303.5 617.04 304.62 616.67 306.87 615.94C311.73 630.93 316.59 645.93 321.44 660.92C319.31 661.61 318.24 661.96 316.11 662.67C315.19 659.88 314.72 658.48 313.8 655.69H313.81ZM311.77 649.54C310 644.2 309.12 641.54 307.36 636.2C305.25 636.36 303.35 636.73 301.68 637.29C298.29 638.43 295.89 640.64 294.51 643.87C293.12 647.11 293.19 650.84 294.68 655.06C295.76 658.12 297.18 660.22 298.92 661.36C300.67 662.5 302.3 662.81 303.83 662.28C305.5 661.71 307.06 660.26 308.53 657.95C310 655.64 311.08 652.83 311.78 649.53L311.77 649.54Z" fill="#333333"/>
<path d="M349.11 644.84C348.21 647.93 346.8 650.47 344.89 652.48C342.98 654.48 341.07 655.77 339.15 656.35C336.46 657.16 333.71 656.77 330.86 655.18C328.01 653.59 325.86 650.51 324.41 645.93C323.27 642.32 322.98 638.86 323.54 635.56C324.11 632.26 325.37 629.4 327.33 627C329.29 624.6 332.1 622.84 335.76 621.77C336.82 621.46 338.44 621.09 340.63 620.69C340.96 620.64 341.45 620.54 342.11 620.42C344.35 619.78 345.46 619.46 347.7 618.84C350.19 627.74 351.44 632.19 353.93 641.09C354.99 644.89 356.28 647.86 357.77 650C355.52 650.63 354.4 650.94 352.16 651.58C351.24 649.98 350.22 647.74 349.11 644.84ZM347.34 638.57C345.79 633.17 345.02 630.47 343.47 625.06C341.36 625.14 339.46 625.42 337.77 625.92C334.35 626.92 331.87 629.03 330.37 632.2C328.86 635.38 328.78 639.11 330.1 643.39C331.05 646.49 332.38 648.65 334.08 649.86C335.77 651.07 337.39 651.44 338.94 650.98C340.62 650.47 342.23 649.1 343.79 646.85C345.35 644.6 346.53 641.84 347.36 638.58L347.34 638.57Z" fill="#333333"/>
<path d="M363.02 648.56C360.16 638.03 357.29 627.51 354.43 616.98C356.39 616.45 357.37 616.18 359.33 615.66C360.1 618.56 360.49 620.01 361.26 622.91C361.97 619.43 362.85 616.92 363.88 615.4C364.91 613.88 366.11 612.94 367.47 612.59C369.1 612.17 370.56 612.44 371.86 613.39C373.16 614.34 374.08 615.93 374.63 618.15C374.8 618.83 374.89 619.17 375.06 619.86C375.23 617.76 375.64 616 376.27 614.56C376.9 613.13 377.64 611.93 378.47 610.97C379.3 610.01 380.38 609.38 381.69 609.06C383.14 608.71 384.52 609 385.82 609.91C387.12 610.82 388.17 613.02 388.98 616.48C391.23 626.11 392.36 630.93 394.61 640.56C392.71 641.01 391.76 641.23 389.85 641.69C387.77 633 386.73 628.65 384.64 619.95C384.21 618.16 383.86 616.96 383.58 616.33C383.3 615.7 382.94 615.26 382.5 615.01C382.06 614.76 381.62 614.68 381.2 614.78C380.16 615.03 379.22 616.06 378.41 617.86C377.59 619.66 377 622.46 376.64 626.25C378.4 633.29 379.28 636.81 381.04 643.84C379.24 644.29 378.33 644.52 376.53 644.98C374.32 636.33 373.21 632 371 623.35C370.28 620.55 369.57 618.98 368.87 618.63C368.16 618.29 367.58 618.18 367.12 618.29C366.1 618.55 365.22 619.68 364.49 621.67C363.76 623.66 363.22 626.1 362.87 629.01C364.81 636.31 365.79 639.97 367.73 647.27C365.84 647.77 364.89 648.03 363 648.54L363.02 648.56Z" fill="#333333"/>
<path d="M410.401 637.02C408.421 627.84 406.451 618.65 404.471 609.47C400.731 610.28 398.861 610.69 395.121 611.53C394.721 609.76 394.521 608.87 394.121 607.1C400.131 605.74 403.141 605.09 409.161 603.83C411.081 613.03 413.001 622.22 414.921 631.42C418.581 630.65 420.421 630.28 424.091 629.55C424.441 631.33 424.621 632.22 424.971 634C419.131 635.16 416.221 635.76 410.401 637.01V637.02ZM400.111 593.67C399.851 592.47 400.101 591.48 400.851 590.7C401.601 589.92 402.371 589.45 403.151 589.28C403.951 589.11 404.851 589.23 405.851 589.63C406.851 590.04 407.481 590.84 407.731 592.04C407.981 593.22 407.731 594.2 406.971 594.97C406.221 595.74 405.451 596.21 404.651 596.38C403.881 596.54 402.991 596.42 401.991 596.02C400.991 595.62 400.361 594.83 400.101 593.65L400.111 593.67Z" fill="#333333"/>
<path d="M446.12 630.08C443.68 616.04 441.24 602.01 438.8 587.97C434.68 588.69 432.62 589.05 428.51 589.82C428.18 588.03 428.01 587.14 427.68 585.35C434.12 584.16 437.34 583.59 443.79 582.51C446.14 596.56 448.49 610.61 450.85 624.67C454.99 623.98 457.06 623.64 461.2 623C461.48 624.79 461.62 625.69 461.9 627.49C455.58 628.47 452.43 628.99 446.13 630.09L446.12 630.08Z" fill="#333333"/>
<path d="M482.79 624.48C481.56 615.17 480.33 605.85 479.1 596.54C475.32 597.04 473.43 597.3 469.65 597.84C469.39 596.04 469.27 595.14 469.01 593.34C475.09 592.48 478.13 592.07 484.21 591.3C485.38 600.62 486.55 609.94 487.73 619.26C491.43 618.79 493.28 618.57 496.99 618.14C497.2 619.94 497.3 620.85 497.51 622.65C491.62 623.33 488.67 623.69 482.79 624.47V624.48ZM476.03 580.44C475.87 579.23 476.19 578.26 477 577.54C477.81 576.83 478.61 576.42 479.4 576.32C480.21 576.22 481.09 576.41 482.06 576.89C483.03 577.38 483.58 578.23 483.73 579.44C483.88 580.64 483.55 581.59 482.74 582.3C481.93 583.01 481.13 583.42 480.33 583.52C479.55 583.62 478.68 583.43 477.72 582.95C476.76 582.47 476.2 581.63 476.04 580.44H476.03Z" fill="#333333"/>
<path d="M537.79 617.98C534.17 619.47 530.69 620.35 527.35 620.63C524.03 620.9 521.01 620.41 518.28 619.14C515.55 617.87 513.34 616.03 511.62 613.6C509.9 611.17 508.88 608.31 508.55 605.03C508.05 600.09 509.31 595.82 512.37 592.23C515.43 588.64 519.4 586.63 524.2 586.23C527.75 585.94 531.57 586.28 535.61 587.27C535.76 589.36 535.83 590.41 535.98 592.5C531.88 591.05 528.24 590.46 525.09 590.71C523 590.88 521.08 591.54 519.33 592.69C517.58 593.83 516.3 595.5 515.5 597.67C514.7 599.84 514.41 602.03 514.61 604.23C514.89 607.17 516.1 609.87 518.23 612.37C520.36 614.86 523.42 615.93 527.44 615.6C528.65 615.5 529.84 615.32 531 615.07C532.16 614.81 534.28 614.04 537.38 612.76C537.53 614.85 537.6 615.9 537.75 617.99L537.79 617.98Z" fill="#333333"/>
<path d="M560.169 618.52C555.419 618.74 551.539 617.31 548.479 614.22C545.419 611.12 543.71 607.1 543.4 602.13C543.09 597.16 544.279 592.95 547.039 589.52C549.789 586.09 553.66 584.24 558.59 584.02C563.5 583.79 567.51 585.28 570.56 588.44C573.61 591.6 575.19 595.68 575.33 600.66C575.47 605.64 574.14 609.8 571.38 613.17C568.62 616.53 564.899 618.31 560.159 618.52H560.169ZM559.96 613.98C562.92 613.84 565.23 612.62 566.9 610.29C568.57 607.96 569.35 604.82 569.21 600.85C569.07 596.91 568.07 593.83 566.19 591.64C564.31 589.44 561.839 588.41 558.789 588.55C555.719 588.69 553.339 589.95 551.669 592.31C549.999 594.67 549.28 597.82 549.51 601.76C549.73 605.72 550.789 608.78 552.669 610.95C554.549 613.12 556.97 614.13 559.95 613.99L559.96 613.98Z" fill="#333333"/>
<path d="M596.72 618.05C595.39 618.05 594.25 617.6 593.29 616.67C592.33 615.74 591.84 614.62 591.82 613.32C591.81 611.99 592.28 610.86 593.24 609.92C594.2 608.98 595.35 608.51 596.67 608.5C597.99 608.5 599.14 608.95 600.11 609.88C601.08 610.81 601.57 611.93 601.57 613.26C601.57 614.57 601.09 615.69 600.14 616.63C599.19 617.57 598.05 618.04 596.72 618.05Z" fill="#333333"/>
<path d="M647.411 615.63C642.871 617.46 638.651 618.31 634.711 618.17C631.721 618.06 629.061 617.25 626.741 615.72C624.411 614.19 622.571 612.06 621.191 609.3C619.821 606.55 619.151 603.62 619.211 600.52C619.271 597.54 620.011 594.68 621.451 591.96C622.891 589.24 624.891 587.14 627.441 585.68C629.991 584.22 632.811 583.54 635.901 583.65C640.001 583.8 643.231 585.33 645.571 588.21C647.911 591.09 648.921 595.42 648.631 601.19C648.611 601.66 648.591 601.89 648.571 602.36C639.251 601.89 634.581 601.71 625.261 601.48C625.201 603.75 625.641 605.84 626.561 607.74C627.481 609.65 628.721 611.09 630.261 612.08C631.811 613.07 633.581 613.6 635.601 613.67C639.191 613.8 643.191 612.8 647.671 610.67C647.571 612.66 647.521 613.65 647.421 615.64L647.411 615.63ZM625.681 597.4C632.461 597.57 635.851 597.69 642.621 597.99C642.631 597.67 642.641 597.52 642.651 597.2C642.771 594.54 642.181 592.38 640.881 590.75C639.581 589.12 637.771 588.26 635.481 588.17C633.171 588.09 631.131 588.83 629.401 590.38C627.671 591.94 626.431 594.28 625.681 597.39V597.4Z" fill="#333333"/>
<path d="M684.109 619.07C681.419 619.9 679.479 620.38 678.299 620.49C677.109 620.6 675.979 620.6 674.889 620.52C672.569 620.33 670.489 619.73 668.629 618.72C666.769 617.7 665.409 616.31 664.539 614.52C663.669 612.74 663.349 610.05 663.599 606.47C663.949 601.21 664.129 598.58 664.479 593.32C661.069 593.09 659.359 592.98 655.949 592.79C656.059 590.98 656.109 590.07 656.209 588.26C659.639 588.46 661.349 588.57 664.779 588.8C665.129 583.54 665.309 580.91 665.659 575.65C667.979 575.81 669.139 575.89 671.449 576.06C671.059 581.32 670.869 583.95 670.489 589.21C676.589 589.66 679.649 589.91 685.739 590.45C685.579 592.26 685.499 593.16 685.329 594.97C679.259 594.43 676.219 594.18 670.149 593.73C669.769 598.95 669.579 601.57 669.189 606.79C668.999 609.42 669.189 611.3 669.739 612.43C670.289 613.56 671.089 614.42 672.119 615C673.149 615.59 674.379 615.94 675.839 616.06C678.529 616.28 681.419 615.69 684.529 614.31C684.359 616.22 684.269 617.18 684.099 619.09L684.109 619.07Z" fill="#333333"/>
<path d="M692.75 621.22C694.33 605.54 695.9 589.85 697.48 574.17C699.8 574.4 700.96 574.52 703.29 574.77C702.37 583.4 701.91 587.72 700.99 596.36C702.88 594.03 705.07 592.28 707.54 591.13C710.01 589.97 712.41 589.54 714.73 589.82C716.68 590.05 718.39 590.74 719.88 591.89C721.37 593.04 722.33 594.33 722.79 595.73C723.15 596.82 723.37 597.96 723.4 599.13C723.43 600.31 723.21 602.7 722.74 606.3C721.79 613.55 721.31 617.18 720.36 624.42C718.16 624.13 717.06 623.99 714.85 623.71C715.79 616.19 716.26 612.43 717.21 604.9C717.6 601.78 717.7 599.7 717.51 598.66C717.32 597.62 716.84 596.73 716.08 595.99C715.31 595.25 714.43 594.81 713.43 594.7C711.43 594.46 709.18 595.11 706.69 596.66C704.2 598.21 702.07 600.27 700.31 602.83C699.5 610.42 699.1 614.21 698.29 621.79C696.08 621.55 694.98 621.44 692.77 621.22H692.75Z" fill="#333333"/>
<path d="M767.29 626.17C765.22 625.79 763.37 624.95 761.75 623.65C760.13 622.35 758.92 620.72 758.14 618.75C757.36 616.78 757.14 614.74 757.5 612.65C757.85 610.61 758.7 608.8 760.07 607.21C761.44 605.62 763.15 604.48 765.21 603.79C767.27 603.1 769.36 602.95 771.49 603.34C773.58 603.72 775.47 604.61 777.15 605.99C778.83 607.37 780.02 609.05 780.74 611.02C781.46 612.99 781.61 614.99 781.21 617.02C780.8 619.11 779.87 620.93 778.44 622.5C777.01 624.07 775.3 625.16 773.32 625.8C771.34 626.44 769.33 626.57 767.29 626.19V626.17Z" fill="#333333"/>
<path d="M812.569 628.79C812.949 627.19 813.129 626.39 813.509 624.8C815.839 625.35 817.009 625.62 819.339 626.19C821.759 621.82 822.979 619.64 825.429 615.28C821.769 614.38 819.929 613.94 816.269 613.08C816.639 611.49 816.829 610.7 817.199 609.12C821.329 610.09 823.389 610.59 827.509 611.6C830.169 606.91 831.499 604.57 834.199 599.89C835.979 600.34 836.879 600.56 838.659 601.02C835.949 605.69 834.609 608.02 831.929 612.7C835.349 613.56 837.059 614 840.479 614.89C843.249 610.25 844.639 607.93 847.449 603.31C849.229 603.78 850.119 604.02 851.899 604.51C849.079 609.12 847.679 611.43 844.889 616.06C846.919 616.6 847.929 616.87 849.959 617.43C849.529 619 849.319 619.79 848.889 621.36C846.419 620.69 845.189 620.35 842.719 619.7C840.149 624 838.869 626.15 836.329 630.47C840.089 631.45 841.969 631.96 845.719 632.98C845.289 634.56 845.069 635.35 844.639 636.94C840.459 635.8 838.369 635.24 834.169 634.15C831.589 638.55 830.309 640.76 827.769 645.17C826.049 644.73 825.189 644.51 823.459 644.08C825.989 639.65 827.259 637.44 829.819 633.03C826.549 632.2 824.919 631.79 821.649 630.98C819.179 635.43 817.949 637.66 815.509 642.12C813.779 641.7 812.919 641.5 811.189 641.09C813.609 636.62 814.829 634.38 817.289 629.92C815.409 629.47 814.469 629.24 812.579 628.8L812.569 628.79ZM823.699 627.25C826.999 628.06 828.649 628.48 831.949 629.33C834.469 625 835.739 622.85 838.299 618.53C834.919 617.65 833.219 617.22 829.829 616.37C827.359 620.72 826.139 622.89 823.699 627.25Z" fill="#333333"/>
<path d="M861.16 649.67C864.48 638.46 867.79 627.25 871.11 616.04C869.05 616.79 867.11 617.38 865.27 617.79C863.43 618.21 861 618.48 857.99 618.62C858.52 616.73 858.79 615.78 859.33 613.88C864.23 613.37 868.71 612.23 872.78 610.42C875.03 611.09 876.16 611.42 878.41 612.1C874.46 625.16 870.51 638.22 866.56 651.27C870.88 652.58 873.04 653.24 877.35 654.61C876.8 656.34 876.53 657.21 875.98 658.94C867.01 656.09 857.97 653.38 848.9 650.84C849.39 649.09 849.64 648.22 850.13 646.47C854.55 647.72 856.76 648.36 861.17 649.66L861.16 649.67Z" fill="#333333"/>
<path d="M909.99 670.45C901.11 667.24 892.16 664.17 883.17 661.26C883.79 659.35 884.1 658.4 884.72 656.5C885.12 655.27 885.81 654.04 886.78 652.81C887.76 651.58 889.27 650.33 891.32 649.07C893.37 647.81 895.49 646.66 897.68 645.6C899.32 644.82 900.14 644.43 901.79 643.65C902.62 643.25 904.47 642.3 907.34 640.81C910.22 639.32 912.21 638.12 913.3 637.17C914.39 636.23 915.14 635.19 915.54 634.04C916.19 632.2 915.9 630.5 914.66 628.94C913.42 627.38 911.81 626.26 909.82 625.58C908.69 625.19 907.38 624.88 905.89 624.65C904.41 624.42 903.08 624.29 901.92 624.26C900.76 624.23 898.82 624.33 896.13 624.56C896.73 622.72 897.03 621.8 897.63 619.96C900.52 619.67 903.3 619.74 905.98 620.18C908.65 620.61 910.81 621.12 912.46 621.68C914.88 622.51 916.98 623.65 918.75 625.09C920.52 626.53 921.62 628.19 922.06 630.07C922.5 631.95 922.4 633.75 921.78 635.48C921.09 637.41 919.75 639.16 917.77 640.74C915.8 642.32 912.52 644.08 907.99 646.08C906.22 646.87 905.34 647.26 903.58 648.06C902.1 648.72 901.37 649.05 899.9 649.71C897.56 650.81 895.58 651.98 893.97 653.21C892.36 654.44 891.13 656.14 890.28 658.31C898.87 661.16 903.15 662.65 911.69 665.72C911.01 667.61 910.67 668.55 909.99 670.43V670.45Z" fill="#333333"/>
<defs>
<radialGradient id="paint0_radial_10_116" cx="0" cy="0" r="1" gradientUnits="userSpaceOnUse" gradientTransform="translate(602 756.777) scale(708.85 411.133)">
<stop offset="0.5" stop-color="#DCE291"/>
<stop offset="0.59" stop-color="#DDE294"/>
<stop offset="0.67" stop-color="#E0E59F"/>
<stop offset="0.75" stop-color="#E6EAB2"/>
<stop offset="0.94" stop-color="#EAEAEA"/>
</radialGradient>
<linearGradient id="paint1_linear_10_116" x1="596.88" y1="1202" x2="596.88" y2="983" gradientUnits="userSpaceOnUse">
<stop stop-color="#EFD256"/>
<stop offset="0.79" stop-color="#DCE291"/>
<stop offset="0.88" stop-color="#E9EDBB"/>
<stop offset="1" stop-color="white"/>
</linearGradient>
</defs>
</svg>
